<svg id="Layer_1" data-name="Layer 1" xmlns="http://www.w3.org/2000/svg" viewBox="0 0 1080 1080"><defs><style>.cls-1{fill:#198754;}.cls-2{fill:#dc3545;}</style></defs><path d="M846.07,945.55H233.93a99.6,99.6,0,0,1-99.48-99.48V233.93a99.6,99.6,0,0,1,99.48-99.48H846.07a99.6,99.6,0,0,1,99.48,99.48V846.07A99.6,99.6,0,0,1,846.07,945.55ZM233.93,180.36a53.64,53.64,0,0,0-53.57,53.57V846.07a53.64,53.64,0,0,0,53.57,53.57H846.07a53.64,53.64,0,0,0,53.57-53.57V233.93a53.63,53.63,0,0,0-53.57-53.57Z"/><path class="cls-1" d="M223,134.45A88.65,88.65,0,0,0,134.45,223v449L671.93,134.45Z"/><rect x="190.26" y="511.85" width="663.98" height="91.82" transform="translate(-241.43 532.56) rotate(-44.99)"/><path class="cls-2" d="M408.07,945.55H857A88.63,88.63,0,0,0,945.55,857V408.07Z"/><path d="M792.52,700.69l-91.83,91.82V379.32H287.5l91.82-91.83H716A76.52,76.52,0,0,1,792.52,364Z"/></svg>