<svg id="Layer_2" data-name="Layer 2" xmlns="http://www.w3.org/2000/svg" viewBox="0 0 566.93 566.93"><defs><style>.cls-1{fill:#fff;}.cls-2{fill:#1d1d1b;}.cls-3{fill:#198754;}.cls-4{fill:#dc3545;}</style></defs><path class="cls-1" d="M48.78,539a20.88,20.88,0,0,1-20.85-20.85V7.5H538.58a20.87,20.87,0,0,1,20.85,20.85V539Z"/><path class="cls-2" d="M538.58,15a13.37,13.37,0,0,1,13.35,13.35V531.5H48.78a13.37,13.37,0,0,1-13.35-13.35V15H538.58m0-15H20.43V518.15A28.35,28.35,0,0,0,48.78,546.5H566.93V28.35A28.35,28.35,0,0,0,538.58,0Z"/><polygon class="cls-3" points="370.01 0 20.43 349.57 20.43 0 370.01 0"/><polygon class="cls-4" points="217.36 546.5 566.93 196.92 566.93 546.5 217.36 546.5"/><polygon points="483.19 84.94 483.19 349.57 415.38 417.38 415.38 196.92 157.91 454.39 106.97 403.46 357.13 153.3 141.83 153.3 209.57 85.56 483.19 84.94"/><rect x="419.09" y="482.79" width="84.14" height="84.14"/><rect x="288.67" y="482.79" width="84.14" height="84.14"/><rect x="158.26" y="482.79" width="84.14" height="84.14"/></svg>