<svg id="Layer_2" data-name="Layer 2" xmlns="http://www.w3.org/2000/svg" viewBox="0 0 1700.79 566.93"><defs><style>.cls-1{fill:#fff;}.cls-2{fill:#1d1d1b;}.cls-3{fill:#198754;}.cls-4{fill:#dc3545;}</style></defs><path class="cls-1" d="M1307.18,423.44a20.87,20.87,0,0,1-20.85-20.85V120.89H1568a20.87,20.87,0,0,1,20.84,20.84V423.44Z"/><path class="cls-2" d="M1568,128.39a13.35,13.35,0,0,1,13.34,13.34V415.94h-274.2a13.37,13.37,0,0,1-13.35-13.35V128.39H1568m0-15H1278.83v289.2a28.35,28.35,0,0,0,28.35,28.35h289.2V141.73A28.34,28.34,0,0,0,1568,113.39Z"/><polygon class="cls-3" points="1481.96 113.39 1278.83 316.51 1278.83 113.39 1481.96 113.39"/><polygon class="cls-4" points="1393.26 430.94 1596.38 227.81 1596.38 430.94 1393.26 430.94"/><polygon points="1547.72 162.74 1547.72 316.51 1508.32 355.92 1508.32 227.81 1358.71 377.42 1329.12 347.83 1474.48 202.47 1349.37 202.47 1388.73 163.1 1547.72 162.74"/><rect x="1510.48" y="393.92" width="48.89" height="48.89"/><rect x="1434.7" y="393.92" width="48.89" height="48.89"/><rect x="1358.92" y="393.92" width="48.89" height="48.89"/><path d="M275.59,338.8a46.59,46.59,0,0,1-12,7.71,32,32,0,0,1-7.38,2,31.08,31.08,0,0,1-7.72.77H158.53a54.19,54.19,0,0,1-15.33-3.09,48.56,48.56,0,0,1-12.51-8.26,33.5,33.5,0,0,1-8-11.3,34.15,34.15,0,0,1-2.81-13.84V238.05a33.83,33.83,0,0,1,3.08-14,35.13,35.13,0,0,1,8-11.51,43.09,43.09,0,0,1,12.57-8,39.08,39.08,0,0,1,15-2.81h20.72v21.28H158.53a16.09,16.09,0,0,0-5.52,1.1,14.85,14.85,0,0,0-5,3.2,14.06,14.06,0,0,0-4.74,10.69v74.73a14,14,0,0,0,4.74,10.69,13.16,13.16,0,0,0,4.74,3.31,15.67,15.67,0,0,0,5.74,1h89.94a15.89,15.89,0,0,0,5.9-1.1,13.35,13.35,0,0,0,4.79-3.14,16.32,16.32,0,0,0,3.26-5,14.55,14.55,0,0,0,1.26-5.79v-111h23.59V313A13.92,13.92,0,0,0,292,323.58a15.56,15.56,0,0,0,9.92,4.3h.55a14.79,14.79,0,0,0,10.58-4.18,18.58,18.58,0,0,0,3.37-4.91,13.52,13.52,0,0,0,1.26-5.79V201.78h23.48V313a14.31,14.31,0,0,0,4.74,10.7,12.69,12.69,0,0,0,4.69,3.19,16,16,0,0,0,5.78,1,14.93,14.93,0,0,0,10.92-4.63,16.49,16.49,0,0,0,3.08-4.46,12.88,12.88,0,0,0,1.33-5.79V201.78h23.47V313a33.93,33.93,0,0,1-2.86,13.73,34.69,34.69,0,0,1-8.43,11.68,44.37,44.37,0,0,1-12.4,8.1,32,32,0,0,1-7.5,2q-2.64.44-7.16.77h-.45a37.31,37.31,0,0,1-7.88-.88,56.82,56.82,0,0,1-7.33-2.1,43,43,0,0,1-11.79-7.49,41,41,0,0,1-11.8,7.6,38.14,38.14,0,0,1-15.1,2.87,41.89,41.89,0,0,1-15.43-3A40.41,40.41,0,0,1,275.59,338.8Z"/><path d="M466.17,201.45V348.83a33.33,33.33,0,0,1-3,13.94,36.48,36.48,0,0,1-20.78,19.35,46.33,46.33,0,0,1-14.55,3h-3.19V363.82h3.3a15.68,15.68,0,0,0,5.18-1.32,14.73,14.73,0,0,0,9.59-13.67V201.45Z"/><path d="M523.16,165.19V312.67a18.39,18.39,0,0,0,.22,3.14,17.75,17.75,0,0,0,.88,3,15.5,15.5,0,0,0,3.53,4.51q4.41,4.31,13.34,4.3v21.28q-10.49,0-17.75-2.87a39.82,39.82,0,0,1-12.62-7.82,35.14,35.14,0,0,1-11.19-25.58V165.19Z"/><path d="M554.24,328v-.11q9,0,13.45-4.3a13.57,13.57,0,0,0,3.47-4.84,15,15,0,0,0,1.16-5.85V201.45h23.59V312.89a33.6,33.6,0,0,1-3,13.84,36.56,36.56,0,0,1-8.27,11.74,38.53,38.53,0,0,1-12.51,7.82,48.28,48.28,0,0,1-14.55,2.87H535.39V328Zm7,57.87H543.11V364.59H566.7v18h12.45v-18h23.59v21.27H584.67v18.08H561.19Z"/><path d="M739.09,222.4H718.26a14.8,14.8,0,0,0-10.8,4.63,16,16,0,0,0-3.31,4.74,13.54,13.54,0,0,0-1.21,5.73v74.95a15.89,15.89,0,0,0,1.32,6.06,22.32,22.32,0,0,0,3.53,4.74,18.56,18.56,0,0,0,4.74,3.09,16.31,16.31,0,0,0,5.73,1.1h72.31a14.82,14.82,0,0,0,10.69-4.52,14.19,14.19,0,0,0,4.63-10.47V201.12h23.59V312.45a32.86,32.86,0,0,1-3,13.73A38,38,0,0,1,818.07,338a40.32,40.32,0,0,1-12.4,8.1,32,32,0,0,1-7.38,2,31.08,31.08,0,0,1-7.72.77H718.26A42.3,42.3,0,0,1,702.83,346a52.26,52.26,0,0,1-12.35-8,35.61,35.61,0,0,1-8.21-11.8,34.67,34.67,0,0,1-2.81-13.67V237.5a33.87,33.87,0,0,1,3-13.89A35.25,35.25,0,0,1,690.59,212a29.37,29.37,0,0,1,5.85-4.51,27.33,27.33,0,0,1,6.72-3.53,42,42,0,0,1,15.1-2.87h20.83Zm21.61-55.23h23.59v21.39H760.7Z"/><path d="M882.83,165.19V312.67a18.39,18.39,0,0,0,.22,3.14,17.75,17.75,0,0,0,.88,3,15.5,15.5,0,0,0,3.53,4.51q4.41,4.31,13.34,4.3v21.28q-10.47,0-17.75-2.87a39.82,39.82,0,0,1-12.62-7.82,35.14,35.14,0,0,1-11.19-25.58V165.19Z"/><path d="M1031.42,338.47a38.85,38.85,0,0,1-11.8,7.27,40.42,40.42,0,0,1-15.43,3H893.3V327.55h110.89a15.63,15.63,0,0,0,5.79-1.1,16,16,0,0,0,9.64-13.78V288.2a14.19,14.19,0,0,0-4.63-10.47,15,15,0,0,0-10.8-4.52H911.38v-35.6a34.54,34.54,0,0,1,2.76-13.73,35.12,35.12,0,0,1,8.15-11.62,38.15,38.15,0,0,1,12.79-8,73.42,73.42,0,0,1,7.27-2.21c1.47-.22,2.8-.4,4-.55l3.31-.22h70.88v21.39H950.29a18.19,18.19,0,0,0-5.84,1.1,15,15,0,0,0-4.85,3.2,14.06,14.06,0,0,0-4.74,10.69v14.11h69.33a38.48,38.48,0,0,1,15.1,3,46.13,46.13,0,0,1,12.68,7.94,40.34,40.34,0,0,1,8,11.57,32.83,32.83,0,0,1,3.08,14v24.25a14,14,0,0,0,1.33,6.18,16.52,16.52,0,0,0,3.19,4.62,14.37,14.37,0,0,0,10.25,4.41h3.31v21.28H1058a48.79,48.79,0,0,1-14.77-2.87A40.13,40.13,0,0,1,1031.42,338.47Z"/><path d="M1095,338.47a38,38,0,0,1-11.9,7.49q-7.27,3-24.81,3V327.66q15.76,0,20.34-4.46a14.25,14.25,0,0,0,4.58-10.53V201.23h23.47V312.67a14.62,14.62,0,0,0,4.74,10.8,12.53,12.53,0,0,0,4.74,3.2q2.65,1,15.22,1v21.28h-5.52q-12.68-.45-19.4-3A41.7,41.7,0,0,1,1095,338.47Zm-29.87,25.24h23.59v21.38h-23.59Zm36,0h23.59v21.38h-23.59Z"/><path d="M1145.61,328v-.11q9,0,13.45-4.3a13.44,13.44,0,0,0,3.47-4.84,14.83,14.83,0,0,0,1.16-5.85V201.45h23.59V312.89a33.6,33.6,0,0,1-3,13.84,36.56,36.56,0,0,1-8.27,11.74,38.53,38.53,0,0,1-12.51,7.82,48.28,48.28,0,0,1-14.55,2.87h-22.15V328Zm7,57.87h-18.08V364.59h23.59v18h12.46v-18h23.58v21.27H1176v18.08h-23.48Z"/></svg>