<svg id="Layer_2" data-name="Layer 2" xmlns="http://www.w3.org/2000/svg" viewBox="0 0 1417.32 566.93"><path d="M221,361.81a60.11,60.11,0,0,1-15.51,10,41.33,41.33,0,0,1-9.53,2.56,40,40,0,0,1-10,1H69.86a69.69,69.69,0,0,1-19.78-4,63,63,0,0,1-16.15-10.67,43.36,43.36,0,0,1-10.38-14.58,44.18,44.18,0,0,1-3.63-17.86V231.77a43.75,43.75,0,0,1,4-18A45.65,45.65,0,0,1,34.29,198.9a55.67,55.67,0,0,1,16.22-10.31A50.36,50.36,0,0,1,69.86,185H96.6v27.46H69.86a20.78,20.78,0,0,0-7.12,1.42,19.21,19.21,0,0,0-6.4,4.13,18.14,18.14,0,0,0-6.12,13.8v96.46A18.14,18.14,0,0,0,56.34,342a17,17,0,0,0,6.12,4.27,20.22,20.22,0,0,0,7.4,1.28H186a20.65,20.65,0,0,0,7.61-1.42,17.32,17.32,0,0,0,6.19-4.06,21,21,0,0,0,4.2-6.4,18.63,18.63,0,0,0,1.63-7.47V185H236V328.52a18,18,0,0,0,6.12,13.65,20.08,20.08,0,0,0,12.8,5.55h.71a19.12,19.12,0,0,0,13.66-5.4,24,24,0,0,0,4.34-6.33,17.42,17.42,0,0,0,1.64-7.47V185h30.3V328.52a18.45,18.45,0,0,0,6.12,13.8,16.41,16.41,0,0,0,6,4.12,20.54,20.54,0,0,0,7.47,1.28,19.27,19.27,0,0,0,14.08-6,21.39,21.39,0,0,0,4-5.76,16.77,16.77,0,0,0,1.71-7.47V185h30.31V328.52a43.87,43.87,0,0,1-3.7,17.71,44.82,44.82,0,0,1-10.89,15.08,57.19,57.19,0,0,1-16,10.46,41.24,41.24,0,0,1-9.68,2.56c-2.27.38-5.36.71-9.25,1h-.56a48,48,0,0,1-10.18-1.13,73.81,73.81,0,0,1-9.46-2.71,55,55,0,0,1-15.22-9.67,53.07,53.07,0,0,1-15.23,9.81,49.15,49.15,0,0,1-19.49,3.7,54.22,54.22,0,0,1-19.91-3.84A52.4,52.4,0,0,1,221,361.81Z"/><path d="M466.94,184.54V374.75a43.16,43.16,0,0,1-3.91,18,47,47,0,0,1-26.82,25,59.51,59.51,0,0,1-18.78,3.84H413.3V394.1h4.27a19.83,19.83,0,0,0,6.69-1.7,19,19,0,0,0,12.37-17.65V184.54Z"/><path d="M540.49,137.73V328.09a24.08,24.08,0,0,0,.29,4.05,22.29,22.29,0,0,0,1.14,3.92,19.94,19.94,0,0,0,4.55,5.83q5.68,5.55,17.21,5.55V374.9q-13.51,0-22.9-3.7a51.54,51.54,0,0,1-16.29-10.1,45.35,45.35,0,0,1-14.44-33V137.73Z"/><path d="M580.61,347.86v-.14q11.67,0,17.36-5.55a17.38,17.38,0,0,0,4.48-6.26,19.18,19.18,0,0,0,1.5-7.54V184.54h30.44V328.37a43.32,43.32,0,0,1-3.91,17.86,47.14,47.14,0,0,1-10.67,15.15,49.56,49.56,0,0,1-16.15,10.1,62.16,62.16,0,0,1-18.78,3.7H556.29V347.86Zm9,74.7H566.24V395.1h30.45v23.19h16.08V395.1h30.44v27.46H619.88v23.33h-30.3Z"/><path d="M819.21,211.57H792.32a19.13,19.13,0,0,0-14,6,20.94,20.94,0,0,0-4.26,6.12,17.45,17.45,0,0,0-1.57,7.4V327.8a20.46,20.46,0,0,0,1.71,7.83,29,29,0,0,0,4.55,6.12,24,24,0,0,0,6.12,4,21.24,21.24,0,0,0,7.4,1.42h93.33a19.19,19.19,0,0,0,13.8-5.83,18.35,18.35,0,0,0,6-13.52V184.11h30.45V327.8A42.35,42.35,0,0,1,932,345.52a49.17,49.17,0,0,1-10.81,15.22,52.37,52.37,0,0,1-16,10.46,40.83,40.83,0,0,1-9.53,2.56,40,40,0,0,1-10,1H792.32a54.46,54.46,0,0,1-19.92-3.7,66.79,66.79,0,0,1-15.94-10.38,45.89,45.89,0,0,1-10.6-15.22,44.85,44.85,0,0,1-3.62-17.65V231.06a43.88,43.88,0,0,1,3.84-17.93,45.46,45.46,0,0,1,10.53-14.94,37.7,37.7,0,0,1,7.54-5.83,35.35,35.35,0,0,1,8.68-4.55,54.1,54.1,0,0,1,19.49-3.7h26.89Zm27.88-71.28h30.45v27.6H847.09Z"/><path d="M1004.73,137.73V328.09a24.2,24.2,0,0,0,.28,4.05,22.29,22.29,0,0,0,1.14,3.92,20,20,0,0,0,4.56,5.83q5.68,5.55,17.21,5.55V374.9q-13.52,0-22.91-3.7a51.54,51.54,0,0,1-16.29-10.1,45.35,45.35,0,0,1-14.44-33V137.73Z"/><path d="M1196.51,361.38a50.09,50.09,0,0,1-15.22,9.39,52.11,52.11,0,0,1-19.92,3.84H1018.25V347.3h143.12a20.28,20.28,0,0,0,7.47-1.43,20.7,20.7,0,0,0,12.45-17.78V296.5a18.34,18.34,0,0,0-6-13.51,19.37,19.37,0,0,0-14-5.84H1041.58V231.2a44.44,44.44,0,0,1,3.56-17.71,45.53,45.53,0,0,1,10.52-15,49.36,49.36,0,0,1,16.51-10.39,91.65,91.65,0,0,1,9.39-2.84c1.89-.29,3.6-.52,5.12-.71l4.27-.29h91.48v27.6H1091.8a23.57,23.57,0,0,0-7.54,1.42,19.42,19.42,0,0,0-6.26,4.13,18.14,18.14,0,0,0-6.12,13.8v18.21h89.49a49.65,49.65,0,0,1,19.49,3.84,59.55,59.55,0,0,1,16.37,10.25,52,52,0,0,1,10.38,14.94,42.12,42.12,0,0,1,4,18.06v31.3a18.13,18.13,0,0,0,1.71,8,21.42,21.42,0,0,0,4.13,6,18.6,18.6,0,0,0,13.23,5.69h4.27V374.9h-4.13a63.18,63.18,0,0,1-19.06-3.7A52,52,0,0,1,1196.51,361.38Z"/><path d="M1278.6,361.38a48.89,48.89,0,0,1-15.36,9.67q-9.39,3.85-32,3.85V347.44q20.34,0,26.25-5.76a18.4,18.4,0,0,0,5.9-13.59V184.25h30.31V328.09A18.87,18.87,0,0,0,1299.8,342a16.28,16.28,0,0,0,6.12,4.13q3.42,1.27,19.63,1.28V374.9h-7.11q-16.37-.57-25-3.85A54.06,54.06,0,0,1,1278.6,361.38ZM1240.05,394h30.44v27.6h-30.44Zm46.52,0H1317v27.6h-30.45Z"/><path d="M1343.91,347.86v-.14q11.65,0,17.36-5.55a17.5,17.5,0,0,0,4.48-6.26,19.36,19.36,0,0,0,1.49-7.54V184.54h30.45V328.37a43.33,43.33,0,0,1-3.92,17.86,47.14,47.14,0,0,1-10.67,15.15,49.4,49.4,0,0,1-16.14,10.1,62.28,62.28,0,0,1-18.78,3.7h-28.6V347.86Zm9,74.7h-23.33V395.1H1360v23.19h16.07V395.1h30.45v27.46h-23.33v23.33h-30.31Z"/></svg>